<?xml version="1.0" encoding="utf-8"?>
<!-- Generator: Adobe Illustrator 18.0.0, SVG Export Plug-In . SVG Version: 6.00 Build 0)  -->
<!DOCTYPE svg PUBLIC "-//W3C//DTD SVG 1.1//EN" "http://www.w3.org/Graphics/SVG/1.1/DTD/svg11.dtd">
<svg version="1.1" id="Ebene_1" xmlns="http://www.w3.org/2000/svg" xmlns:xlink="http://www.w3.org/1999/xlink" x="0px" y="0px"
	 viewBox="0 0 64 64" enable-background="new 0 0 64 64" xml:space="preserve">
<g>
	<g>
		<path d="M58.5,17.1v-6.6c0-2.3-4.2-3.6-8.4-3.6c-4.2,0-8.4,1.2-8.4,3.6v0.2l-1.4-0.5V3.6C40.4,1.2,36.2,0,32,0
			c-4.2,0-8.4,1.2-8.4,3.6v7l-0.7,0.3v-0.3c0-2.3-4.2-3.6-8.4-3.6c-4.2,0-8.4,1.2-8.4,3.6v6.3l-3.8,1.3C0.9,18.6,0,19.8,0,21.1v27.3
			c0,1.2,0.8,2.3,2.1,2.8l28.8,12.4c1.2,0.5,2.6,0.5,3.8,0L62,51.3c1.3-0.6,2-1.6,2-2.8V21.2c0-1.3-0.9-2.4-2.3-2.9L58.5,17.1z
			 M44.6,10.5c0.1-0.4,2-1.3,5.5-1.3c3.5,0,5.4,0.9,5.5,1.2c-0.1,0.4-2,1.3-5.5,1.3C46.6,11.7,44.8,10.8,44.6,10.5L44.6,10.5z
			 M44.6,13.2c1.5,0.6,3.5,0.8,5.5,0.8c2,0,4-0.3,5.5-0.8c0,0,0,4.6,0,4.7v0c-0.1,0.4-2,1.3-5.5,1.3c-3.5,0-5.4-0.9-5.5-1.2
			C44.6,17.9,44.6,13.2,44.6,13.2L44.6,13.2z M26.5,3.6c0.1-0.4,2-1.3,5.5-1.3c3.5,0,5.4,0.9,5.5,1.2c-0.1,0.4-2,1.3-5.5,1.3
			C28.5,4.8,26.6,3.9,26.5,3.6L26.5,3.6z M26.5,6.3C28,6.8,30,7.1,32,7.1c2,0,4-0.3,5.5-0.8c0,0,0,4.6,0,4.7v0
			c-0.1,0.4-2,1.3-5.5,1.3c-3.5,0-5.4-0.9-5.5-1.2C26.5,11,26.5,6.3,26.5,6.3L26.5,6.3z M9,10.5c0.1-0.4,2-1.3,5.5-1.3
			c3.5,0,5.4,0.9,5.5,1.2c-0.1,0.4-2,1.3-5.5,1.3C11,11.7,9.1,10.8,9,10.5L9,10.5z M9,13.2c1.5,0.6,3.5,0.8,5.5,0.8
			c2,0,4-0.3,5.5-0.8c0,0,0,4.6,0,4.7v0c-0.1,0.4-2,1.3-5.5,1.3C11,19.2,9.1,18.3,9,18C9,17.9,9,13.2,9,13.2L9,13.2z M30.8,58.6
			c0,0.5-0.3,1-0.9,1.3c-0.6,0.3-1.2,0.3-1.8,0L4.3,49.6c-0.9-0.4-1.4-1.1-1.4-1.9V25.4c0-0.6,0.4-1.1,1-1.4c0.6-0.3,1.3-0.3,1.9,0
			l23.6,10.3c0.9,0.4,1.4,1.1,1.4,1.9V58.6z M33.9,32c-0.8,0.4-1.9,0.4-2.7,0l-26-11c-0.3-0.1-0.4-0.3-0.4-0.6
			c0-0.2,0.2-0.5,0.4-0.6l1.6-0.6c1.3,1.4,4.5,2.2,7.8,2.2c4.2,0,8.4-1.2,8.4-3.6v-4.5l1.8-0.6c1.5,1.2,4.4,1.8,7.4,1.8
			c3.2,0,6.4-0.7,7.7-2.1l2.1,0.8V18c0,2.3,4.2,3.6,8.4,3.6c3.2,0,6.3-0.7,7.7-2.1l1.3,0.5c0.2,0.1,0.4,0.3,0.4,0.5
			c0,0.2-0.1,0.4-0.4,0.5L33.9,32z M61.2,47.9c0,0.7-0.5,1.3-1.2,1.6L37,59.9c-0.6,0.2-1.3,0.2-1.8,0c-0.6-0.3-0.9-0.7-0.9-1.3V36
			c0-0.7,0.5-1.4,1.3-1.7l22.8-10.3c0.6-0.3,1.3-0.3,1.8,0c0.6,0.3,0.9,0.8,0.9,1.3V47.9z M61.2,47.9"/>
	</g>
	<path d="M32.9,15.4c-4.2,0-8.4,1.2-8.4,3.6v7.5c0,2.3,4.2,3.6,8.4,3.6c4.2,0,8.4-1.2,8.4-3.6v-7.5C41.2,16.6,37,15.4,32.9,15.4
		L32.9,15.4z M38.4,26.4L38.4,26.4c-0.1,0.4-2,1.3-5.5,1.3c-3.5,0-5.4-0.9-5.5-1.2c0-0.1,0-4.8,0-4.8c1.6,0.5,3.5,0.8,5.5,0.8
		c2,0,4-0.3,5.5-0.8C38.4,21.7,38.3,26.3,38.4,26.4L38.4,26.4z M32.9,20.2c-3.5,0-5.4-0.9-5.5-1.2v0c0.1-0.4,2.1-1.3,5.5-1.3
		c3.5,0,5.4,0.9,5.5,1.2C38.2,19.3,36.3,20.2,32.9,20.2L32.9,20.2z M32.9,20.2"/>
</g>
</svg>
